# xmcd CD database file
#
# Track frame offsets:
#	150
#	31357
#	62779
#	87587
#	106479
#	128962
#	163509
#	194295
#	236747
#
# Disc length: 3992 seconds
#
# Revision: 0
# Processed by: cddbd v1.5.1PL2 Copyright (c) Steve Scherf et al.
# Submitted via: CDex 1.51
#
DISCID=7b0f9609
DTITLE=Gerald Jay Markoe - Mozarts' Sleepytime Music Box
DYEAR=2002
DGENRE=New Age
TTITLE0=Romanze from Piano Concerto 23 (Elvira Madigan)
TTITLE1=Romanze from Piano Concerto 20 in D
TTITLE2=Romanze from Eine Kleine Nachtmusik
TTITLE3=2nd Movement from Divertimento #1 in D
TTITLE4=1st Movement from Piano Sonata in C
TTITLE5=2nd Movement from Symphony 40
TTITLE6=Adagio from Violin Concerto in D
TTITLE7=2nd Movement from Piano Sonato in C
TTITLE8=1st Movement from Symphony  40
EXTD=YEAR: 2002
EXTT0=
EXTT1=
EXTT2=
EXTT3=
EXTT4=
EXTT5=
EXTT6=
EXTT7=
EXTT8=
PLAYORDER=
